<svg width="38" height="38" viewBox="0 0 38 38" fill="none" xmlns="http://www.w3.org/2000/svg">
<path d="M15.0417 23.75V26.125C15.0417 29.1855 12.5606 31.6666 9.50004 31.6666C6.43947 31.6666 3.95837 29.1855 3.95837 26.125V15.0416" stroke="white" stroke-width="2"/>
<path d="M22.9584 23.75V26.125C22.9584 29.1855 25.4395 31.6666 28.5 31.6666C31.5606 31.6666 34.0417 29.1855 34.0417 26.125V15.0416" stroke="white" stroke-width="2"/>
<path d="M25.3334 6.33337H12.6667C7.85723 6.33337 3.95837 10.2322 3.95837 15.0417C3.95837 19.8512 7.85723 23.75 12.6667 23.75H25.3334C30.1429 23.75 34.0417 19.8512 34.0417 15.0417C34.0417 10.2322 30.1429 6.33337 25.3334 6.33337Z" stroke="white" stroke-width="2"/>
<path d="M16.625 15.0416H10.2916" stroke="white" stroke-width="2"/>
<path d="M13.4584 11.875V18.2083" stroke="white" stroke-width="2"/>
<path d="M28.5 13.4583C28.5 12.5839 27.7912 11.875 26.9167 11.875C26.0423 11.875 25.3334 12.5839 25.3334 13.4583C25.3334 14.3328 26.0423 15.0417 26.9167 15.0417C27.7912 15.0417 28.5 14.3328 28.5 13.4583Z" fill="white"/>
<path d="M25.3333 17.4167C25.3333 16.5423 24.6244 15.8334 23.75 15.8334C22.8755 15.8334 22.1666 16.5423 22.1666 17.4167C22.1666 18.2912 22.8755 19 23.75 19C24.6244 19 25.3333 18.2912 25.3333 17.4167Z" fill="white"/>
</svg>
