<svg width="23" height="23" viewBox="0 0 23 23" fill="none" xmlns="http://www.w3.org/2000/svg">
<path d="M15.5339 7.68742C17.7808 7.68742 19.4615 9.17358 19.4615 12.367V18.3382H16.0469V12.7651C16.0469 11.3674 15.5515 10.412 14.2777 10.412C13.8862 10.4108 13.5043 10.5334 13.1866 10.7621C12.8688 10.9909 12.6315 11.3142 12.5085 11.6859C12.4158 11.9559 12.3768 12.2413 12.3935 12.5263V18.3382H9.04077V18.2497C9.04077 17.312 9.04077 8.85512 9.04077 7.92627H12.4554V9.39473C12.7636 8.8561 13.2135 8.41219 13.7562 8.1112C14.2989 7.81021 14.9137 7.66365 15.5339 7.68742ZM7.15654 7.92627V18.3382H3.74193V7.92627H7.15654ZM5.46693 2.9105C5.71089 2.89092 5.95626 2.92217 6.18752 3.00227C6.41879 3.08237 6.63092 3.20959 6.81051 3.37587C6.99009 3.54215 7.13322 3.74388 7.23085 3.96831C7.32848 4.19274 7.37848 4.43499 7.3777 4.67973C7.37882 4.92692 7.32813 5.17159 7.22889 5.39799C7.12966 5.62438 6.98409 5.82747 6.80156 5.99416C6.61904 6.16085 6.40361 6.28744 6.16916 6.36578C5.93472 6.44411 5.68646 6.47245 5.44039 6.44896C5.19714 6.46726 4.95273 6.43505 4.72252 6.35437C4.49231 6.27369 4.28127 6.14627 4.10266 5.98012C3.92405 5.81397 3.78173 5.61269 3.68464 5.3889C3.58755 5.16512 3.53778 4.92367 3.53847 4.67973C3.53747 4.43337 3.58793 4.18951 3.68663 3.96377C3.78533 3.73804 3.93009 3.5354 4.11163 3.36885C4.29317 3.2023 4.5075 3.0755 4.74088 2.99657C4.97426 2.91764 5.22156 2.88833 5.46693 2.9105Z" fill="white"/>
</svg>
