<svg width="27" height="30" viewBox="0 0 27 30" fill="none" xmlns="http://www.w3.org/2000/svg">
<path d="M0.543124 0.469065C0.166521 0.920972 -0.0235634 1.49949 0.0116159 2.0867V27.6453C-0.0235634 28.2325 0.166521 28.811 0.543124 29.2629L0.624005 29.3438L14.9401 15.0393V14.7042L0.624005 0.388184L0.543124 0.469065Z" fill="url(#paint0_linear_4641_4869)"/>
<path d="M19.6774 19.8113L14.9401 15.0393V14.7042L19.6774 9.92065L19.7814 9.97843L25.4547 13.2021C27.0723 14.1149 27.0723 15.617 25.4547 16.5414L19.8045 19.7535L19.6774 19.8113Z" fill="url(#paint1_linear_4641_4869)"/>
<path d="M19.816 19.7417L14.94 14.8657L0.543091 29.2626C0.872813 29.5525 1.29343 29.7181 1.73226 29.7307C2.17109 29.7434 2.60055 29.6023 2.94643 29.332L19.8276 19.7417" fill="url(#paint2_linear_4641_4869)"/>
<path d="M19.816 9.98977L2.93486 0.399522C2.58898 0.129162 2.15952 -0.0118748 1.72069 0.000783629C1.28187 0.0134421 0.861247 0.179001 0.531525 0.468849L14.94 14.8658L19.816 9.98977Z" fill="url(#paint3_linear_4641_4869)"/>
<path opacity="0.2" d="M19.6773 19.6377L2.93482 29.1702C2.60122 29.4196 2.19588 29.5544 1.77936 29.5544C1.36284 29.5544 0.957503 29.4196 0.623912 29.1702L0.54303 29.2511L0.623912 29.3319C0.956746 29.5831 1.36238 29.719 1.77936 29.719C2.19635 29.719 2.60198 29.5831 2.93482 29.3319L19.816 19.7417L19.6773 19.6377Z" fill="black"/>
<path opacity="0.12" d="M0.543124 29.1009C0.166521 28.649 -0.0235634 28.0705 0.0116159 27.4833V27.6566C-0.0235634 28.2438 0.166521 28.8223 0.543124 29.2742L0.624006 29.1933L0.543124 29.1009ZM25.4547 16.3678L19.6774 19.6377L19.7814 19.7417L25.4547 16.5296C25.7766 16.3784 26.0529 16.1449 26.2558 15.8528C26.4586 15.5606 26.5809 15.2202 26.6101 14.8657C26.5451 15.1878 26.4072 15.4906 26.2069 15.751C26.0066 16.0114 25.7493 16.2224 25.4547 16.3678Z" fill="black"/>
<path opacity="0.25" d="M2.93485 0.561288L25.4546 13.3637C25.7492 13.5091 26.0065 13.7201 26.2068 13.9805C26.4071 14.2409 26.5451 14.5437 26.61 14.8658C26.5808 14.5113 26.4586 14.1709 26.2557 13.8787C26.0528 13.5866 25.7765 13.3531 25.4546 13.2019L2.93485 0.399525C1.31721 -0.513282 0 0.249316 0 2.09804V2.27136C0.0346635 0.41108 1.32877 -0.351519 2.93485 0.561288Z" fill="white"/>
<defs>
<linearGradient id="paint0_linear_4641_4869" x1="9.12142" y1="1.82091" x2="-3.15095" y2="14.0933" gradientUnits="userSpaceOnUse">
<stop stop-color="#00A0FF"/>
<stop offset="0.01" stop-color="#00A1FF"/>
<stop offset="0.26" stop-color="#00BEFF"/>
<stop offset="0.51" stop-color="#00D2FF"/>
<stop offset="0.76" stop-color="#00DFFF"/>
<stop offset="1" stop-color="#00E3FF"/>
</linearGradient>
<linearGradient id="paint1_linear_4641_4869" x1="27.5692" y1="14.866" x2="-0.381177" y2="14.866" gradientUnits="userSpaceOnUse">
<stop stop-color="#FFE000"/>
<stop offset="0.41" stop-color="#FFBD00"/>
<stop offset="0.78" stop-color="#FFA500"/>
<stop offset="1" stop-color="#FF9C00"/>
</linearGradient>
<linearGradient id="paint2_linear_4641_4869" x1="17.17" y1="19.4609" x2="-3.79498" y2="40.4168" gradientUnits="userSpaceOnUse">
<stop stop-color="#FF3A44"/>
<stop offset="1" stop-color="#C31162"/>
</linearGradient>
<linearGradient id="paint3_linear_4641_4869" x1="-3.08509" y1="-1.75892" x2="6.2726" y2="7.59886" gradientUnits="userSpaceOnUse">
<stop stop-color="#32A071"/>
<stop offset="0.07" stop-color="#2DA771"/>
<stop offset="0.48" stop-color="#15CF74"/>
<stop offset="0.8" stop-color="#06E775"/>
<stop offset="1" stop-color="#00F076"/>
</linearGradient>
</defs>
</svg>
