<svg width="27" height="34" viewBox="0 0 27 34" fill="none" xmlns="http://www.w3.org/2000/svg">
<path d="M23.4612 13.9804C22.8353 15.0831 22.4985 16.326 22.4819 17.5938C22.4833 19.0206 22.9047 20.4154 23.6937 21.6043C24.4826 22.7931 25.6041 23.7233 26.9183 24.2789C26.401 25.9567 25.6216 27.5422 24.609 28.9766C23.2507 31.0095 21.8271 32.9952 19.5648 33.0332C17.3679 33.0834 16.6295 31.7388 14.1104 31.7388C11.5655 31.7388 10.7786 32.9952 8.67129 33.0834C6.51688 33.1624 4.87139 30.9138 3.46297 28.9006C0.649178 24.7878 -1.54315 17.3112 1.39523 12.223C2.0737 11.0042 3.05622 9.98203 4.24721 9.25594C5.4382 8.52984 6.79697 8.12463 8.19112 8.07978C10.3455 8.0342 12.348 9.5353 13.6729 9.5353C14.9734 9.5353 17.4469 7.74097 19.9994 8.00838C21.1951 8.04616 22.3656 8.36217 23.4179 8.93131C24.4702 9.50045 25.3754 10.307 26.0615 11.2871C24.9815 11.9513 24.087 12.8778 23.4612 13.9804Z" fill="white"/>
<path d="M20.0252 0C20.1719 1.92057 19.5642 3.8227 18.3311 5.30245C17.7406 6.03673 16.9912 6.62744 16.1393 7.0301C15.2874 7.43275 14.3553 7.63685 13.4131 7.62702C13.3533 6.70365 13.476 5.77755 13.7743 4.90163C14.0725 4.0257 14.5403 3.21712 15.1511 2.52208C16.4008 1.09831 18.1411 0.19778 20.0252 0Z" fill="white"/>
</svg>
