<svg width="38" height="38" viewBox="0 0 38 38" fill="none" xmlns="http://www.w3.org/2000/svg">
<g clip-path="url(#clip0_4644_5593)">
<path d="M15.0417 15.8333C18.1022 15.8333 20.5833 13.3522 20.5833 10.2917C20.5833 7.23109 18.1022 4.75 15.0417 4.75C11.9811 4.75 9.5 7.23109 9.5 10.2917C9.5 13.3522 11.9811 15.8333 15.0417 15.8333Z" stroke="white" stroke-width="2"/>
<path d="M3.16669 32.3V33.25H26.9167V32.3C26.9167 28.753 26.9167 26.9795 26.2264 25.6247C25.6192 24.433 24.6503 23.4641 23.4586 22.8569C22.1038 22.1666 20.3303 22.1666 16.7834 22.1666H13.3C9.75304 22.1666 7.97955 22.1666 6.62475 22.8569C5.43305 23.4641 4.46417 24.433 3.85698 25.6247C3.16669 26.9795 3.16669 28.753 3.16669 32.3Z" stroke="white" stroke-width="2"/>
<path d="M25.3333 15.0416H34.8333M30.0833 10.2916V19.7916V10.2916Z" stroke="white" stroke-width="2"/>
</g>
<defs>
<clipPath id="clip0_4644_5593">
<rect width="38" height="38" fill="white"/>
</clipPath>
</defs>
</svg>
