<svg width="17" height="13" viewBox="0 0 17 13" fill="none" xmlns="http://www.w3.org/2000/svg">
<g clip-path="url(#clip0_4674_5461)">
<path d="M5.14583 5.41667C6.19288 5.41667 7.04167 4.56788 7.04167 3.52083C7.04167 2.47379 6.19288 1.625 5.14583 1.625C4.09879 1.625 3.25 2.47379 3.25 3.52083C3.25 4.56788 4.09879 5.41667 5.14583 5.41667Z" stroke="white" stroke-width="2"/>
<path d="M1.08334 11.0499V11.3749H9.20834V11.0499C9.20834 9.83648 9.20834 9.22976 8.9722 8.76628C8.76448 8.35859 8.433 8.02712 8.02532 7.81939C7.56184 7.58325 6.95512 7.58325 5.74168 7.58325H4.55001C3.33657 7.58325 2.72985 7.58325 2.26637 7.81939C1.85868 8.02712 1.52722 8.35859 1.3195 8.76628C1.08334 9.22976 1.08334 9.83648 1.08334 11.0499Z" stroke="white" stroke-width="2"/>
</g>
<path d="M10 4.5H17M13.5 1V8V1Z" stroke="white" stroke-width="2"/>
<defs>
<clipPath id="clip0_4674_5461">
<rect width="13" height="13" fill="white"/>
</clipPath>
</defs>
</svg>
