<svg width="61" height="62" viewBox="0 0 61 62" fill="none" xmlns="http://www.w3.org/2000/svg">
<path opacity="0.4" d="M38.5494 8.05761L61 30.5312L38.5494 53.0048C37.4923 54.063 36.2374 54.9023 34.8563 55.475C33.4752 56.0477 31.9949 56.3424 30.5 56.3424C29.0051 56.3424 27.5248 56.0477 26.1437 55.475C24.7626 54.9023 23.5077 54.063 22.4506 53.0048L-1.07241e-06 30.5312L22.4506 8.05761C24.5855 5.9206 27.4809 4.72004 30.5 4.72004C33.5191 4.72004 36.4145 5.9206 38.5494 8.05761V8.05761Z" fill="white"/>
<path fill-rule="evenodd" clip-rule="evenodd" d="M33.9357 13.0259C32.8356 11.9283 31.3457 11.312 29.7924 11.312C28.2392 11.312 26.7493 11.9283 25.6492 13.0259L8.79822 29.8908L13.355 34.4388L34.3475 13.4248L33.9357 13.0259ZM38.0209 17.1143L25.2531 29.8951L29.7916 34.4382L42.5593 21.6574L38.0209 17.1143ZM29.7942 41.8222L46.2501 25.3528L50.7868 29.8907L33.9458 46.7623C32.8466 47.8616 31.3564 48.479 29.8026 48.479C28.2488 48.479 26.7586 47.8616 25.6593 46.7623L17.038 38.1321L21.5646 33.5774L29.7942 41.8222Z" fill="white"/>
</svg>
