<svg width="551" height="108" viewBox="0 0 551 108" fill="none" xmlns="http://www.w3.org/2000/svg">
<path d="M67.9578 14.8721L107.233 54.1871L67.9578 93.5022C66.1086 95.3533 63.9133 96.8217 61.4972 97.8235C59.0811 98.8253 56.4915 99.3409 53.8763 99.3409C51.2612 99.3409 48.6716 98.8253 46.2555 97.8235C43.8394 96.8217 41.6441 95.3533 39.7949 93.5022L0.519975 54.1871L39.7949 14.8721C43.5295 11.1336 48.5948 9.03336 53.8763 9.03336C59.1579 9.03336 64.2232 11.1336 67.9578 14.8721Z" fill="url(#paint0_linear_59_1457)"/>
<path fill-rule="evenodd" clip-rule="evenodd" d="M61.1237 24.6769C59.1992 22.7568 56.5928 21.6786 53.8755 21.6786C51.1583 21.6786 48.5519 22.7568 46.6273 24.6769L17.1484 54.1801L25.12 62.1364L61.8441 25.3746L61.1237 24.6769ZM68.2701 31.8294L45.9344 54.1879L53.8738 62.1355L76.2096 39.777L68.2701 31.8294ZM53.8785 75.053L82.6662 46.2416L90.6026 54.1802L61.1413 83.6952C59.2183 85.6182 56.6113 86.6984 53.8931 86.6984C51.175 86.6984 48.568 85.6182 46.6449 83.6952L31.5629 68.5977L39.4817 60.6297L53.8785 75.053Z" fill="url(#paint1_linear_59_1457)"/>
<g clip-path="url(#clip0_59_1457)">
<path d="M542.431 45.5953C540.966 45.5953 539.571 45.2464 538.316 44.6186C537.13 43.9907 536.154 43.014 535.456 41.828C534.759 40.5722 534.41 39.1769 534.41 37.7119C534.41 36.2468 534.759 34.8515 535.456 33.5958C536.154 32.4098 537.13 31.4331 538.316 30.8052C539.571 30.1076 540.966 29.7587 542.431 29.7587C543.896 29.7587 545.291 30.1076 546.546 30.8052C547.732 31.4331 548.708 32.4098 549.406 33.5958C550.103 34.8515 550.452 36.2468 550.452 37.7119C550.452 39.1769 550.103 40.5722 549.406 41.828C548.708 43.014 547.732 43.9907 546.546 44.6186C545.291 45.2464 543.826 45.5953 542.431 45.5953ZM542.431 43.9907C543.268 44.0604 544.105 43.9209 544.942 43.6419C545.709 43.3628 546.476 42.8745 547.034 42.2466C547.662 41.6187 548.081 40.921 548.36 40.1536C548.639 39.3862 548.778 38.5491 548.708 37.6421C548.708 36.8049 548.569 35.9678 548.29 35.1306C548.011 34.3632 547.523 33.5958 546.965 33.0377C546.407 32.4098 545.639 31.9214 544.872 31.6424C544.105 31.2935 543.268 31.154 542.431 31.154C541.594 31.154 540.757 31.2935 539.99 31.6424C539.223 31.9912 538.525 32.4795 537.897 33.0377C537.34 33.6655 536.851 34.3632 536.572 35.1306C536.293 35.898 536.154 36.7352 536.154 37.6421C536.084 38.4793 536.224 39.3165 536.503 40.1536C536.782 40.921 537.27 41.6885 537.897 42.2466C538.525 42.8745 539.223 43.293 539.99 43.6419C540.687 43.9209 541.594 44.0604 542.431 43.9907ZM539.641 41.828V33.3865H542.85C543.617 33.3167 544.384 33.5958 545.012 34.0841C545.221 34.2934 545.43 34.5027 545.57 34.7818C545.709 35.0608 545.779 35.3399 545.779 35.6887C545.779 36.1073 545.64 36.5956 545.43 36.9445C545.151 37.3631 544.733 37.6421 544.245 37.7816V38.2002C544.454 38.2002 544.593 38.2002 544.733 38.27C544.872 38.3398 545.012 38.4793 545.151 38.6188C545.361 38.8979 545.43 39.3165 545.43 39.6653V41.8977H543.826V39.5955C543.826 39.456 543.826 39.3862 543.826 39.2467C543.826 39.1769 543.756 39.0374 543.687 38.9676C543.617 38.8979 543.547 38.8281 543.408 38.8281C543.268 38.8281 543.198 38.7583 543.059 38.8281H541.315V41.8977H539.641V41.828ZM541.245 37.2933H542.85C543.059 37.2933 543.198 37.2933 543.338 37.2235C543.477 37.1538 543.687 37.084 543.756 36.9445C543.966 36.6654 544.035 36.3864 544.035 36.0375C544.035 35.6887 543.966 35.4097 543.756 35.1306C543.617 34.9911 543.477 34.9213 543.338 34.8515C543.198 34.7818 542.989 34.7818 542.85 34.7818H541.245V37.2933Z" fill="white"/>
<path d="M320.075 71.3383C318.959 71.3383 318.122 71.0593 317.495 70.4314C316.867 69.8035 316.518 68.8268 316.518 67.5711V47.7579C316.518 41.2698 314.495 36.3166 310.59 32.8981C306.614 29.4796 301.174 27.7355 294.269 27.7355C289.805 27.7355 285.899 28.4332 282.83 29.7587C279.97 30.9447 277.39 32.7586 275.367 35.1306C273.623 37.1537 272.368 39.456 271.461 41.8977L282.9 45.7348C283.388 43.5721 284.504 41.6187 286.178 40.0839C287.922 38.4793 290.572 37.6421 294.059 37.6421C297.617 37.6421 300.337 38.4793 301.941 40.2234C302.778 41.1303 303.406 42.107 303.824 43.2233C304.243 44.3395 304.452 45.5255 304.382 46.7812V50.2695H289.247C289.107 50.2695 288.898 50.2695 288.759 50.2695C285.341 50.2695 281.993 50.8973 278.785 52.1531C275.925 53.1996 273.484 55.0832 271.74 57.525C270.066 59.897 269.229 62.8968 269.229 66.3851C269.229 69.9431 270.066 72.9429 271.74 75.3847C273.484 77.8962 275.855 79.8496 278.645 81.0356C281.854 82.3611 285.201 83.0588 288.619 82.989C292.246 82.989 295.106 82.5007 297.198 81.4542C299.011 80.617 300.546 79.431 301.732 77.8962C302.499 76.9195 303.127 75.8033 303.615 74.6173L303.754 74.2685H306.684V74.8963C306.684 75.8033 306.893 76.7102 307.242 77.5474C307.66 78.3846 308.288 79.0822 308.985 79.6403C310.799 80.8961 313.031 81.524 315.193 81.4542H323.702V71.3383H320.075ZM304.452 60.9434C304.452 64.5712 303.196 67.5711 300.685 69.8035C298.175 71.9662 294.966 73.0825 291.06 73.0825C288.131 73.0825 285.759 72.4546 284.225 71.1291C283.458 70.5012 282.83 69.7338 282.412 68.8268C281.993 67.9199 281.784 66.9432 281.784 65.9665C281.714 65.0595 281.923 64.0828 282.342 63.2457C282.76 62.4085 283.388 61.6411 284.155 61.083C285.69 59.9667 287.782 59.3389 290.363 59.3389H304.522V60.9434H304.452Z" fill="white"/>
<path d="M399.658 30.3866C396.937 28.9913 393.938 28.2936 390.939 28.3634C386.963 28.3634 383.895 29.0611 381.732 30.5261C379.64 31.9214 377.896 33.805 376.71 36.0375L376.571 36.3166H373.99L373.851 36.0375C372.665 33.7353 370.921 31.8516 368.759 30.5261C366.527 29.1308 363.598 28.4332 359.901 28.4332C356.484 28.4332 353.763 29.0611 351.671 30.3168C349.788 31.3633 348.253 32.9679 347.207 34.7817L347.068 35.0608H344.278V29.2006H332.002V81.524H344.487V50.4788C344.487 46.7115 345.394 43.7116 347.137 41.6884C348.951 39.5955 351.462 38.549 354.67 38.549C357.53 38.549 359.762 39.3164 361.366 40.921C362.97 42.4558 363.807 44.8278 363.807 47.8975V81.4542H376.292V50.4788C376.292 46.7115 377.199 43.7116 378.942 41.6884C380.756 39.5955 383.267 38.549 386.475 38.549C389.335 38.549 391.567 39.3164 393.171 40.921C394.775 42.4558 395.612 44.8278 395.612 47.8975V81.4542H408.097V46.9905C408.097 42.8047 407.33 39.3164 405.726 36.5259C404.47 33.8748 402.308 31.7819 399.658 30.3866Z" fill="white"/>
<path d="M457.548 31.154C453.782 28.9215 449.318 27.7355 444.157 27.7355C438.995 27.7355 434.392 28.8518 430.486 31.0842C426.58 33.2469 423.442 36.5259 421.279 40.4327C419.117 44.479 418.001 49.2928 418.001 54.7344V55.9902C418.001 61.5016 419.117 66.3153 421.349 70.2919C423.442 74.2685 426.65 77.4776 430.626 79.6403C434.601 81.8728 439.205 82.989 444.436 82.989C444.436 82.989 444.436 82.989 444.505 82.989C449.248 82.989 453.224 82.2216 456.293 80.7566C459.152 79.431 461.663 77.6171 463.756 75.3149C465.29 73.6406 466.615 71.7569 467.731 69.8035L457.618 64.9898C456.641 66.8037 455.316 67.9897 453.712 69.5245L453.642 69.5942C451.759 71.3383 448.83 72.1755 444.924 72.1755C441.297 72.2453 437.81 70.9895 435.089 68.6175C433.764 67.4315 432.718 66.0362 431.951 64.4317C431.323 63.1061 430.974 61.7806 430.835 60.3853L430.765 59.3389C431.393 59.3389 431.811 59.3389 431.811 59.3389H469.545V54.6646C469.545 49.3625 468.499 44.5488 466.406 40.5722C464.383 36.7352 461.315 33.4562 457.548 31.154ZM430.765 50.2695L430.905 49.1532C431.323 46.1534 432.788 43.4325 435.089 41.4094C437.321 39.456 440.39 38.4793 444.157 38.4793C447.784 38.4793 450.783 39.456 453.015 41.4094C454.131 42.3861 455.107 43.5721 455.735 44.8976C456.432 46.2231 456.781 47.6882 456.92 49.1532V50.1997H430.765V50.2695Z" fill="white"/>
<path d="M183.649 31.154C179.882 28.9215 175.349 27.7355 170.257 27.7355C165.096 27.7355 160.492 28.8518 156.586 31.0842C152.611 33.2469 149.472 36.4561 147.38 40.4327C145.218 44.4093 144.102 49.223 144.102 54.7344V55.9902C144.102 61.5016 145.218 66.3153 147.45 70.2919C149.542 74.2685 152.75 77.4776 156.656 79.6403C160.632 81.8728 165.235 82.989 170.466 82.989C170.466 82.989 170.466 82.989 170.536 82.989C175.279 82.989 179.324 82.2216 182.463 80.7566C185.323 79.431 187.764 77.6171 189.856 75.3149C191.391 73.6406 192.716 71.7569 193.832 69.8035L183.718 64.9898C182.742 66.8734 181.347 68.1292 179.743 69.5942C177.86 71.3383 174.93 72.1755 171.024 72.1755C167.397 72.2453 163.91 70.9895 161.19 68.6175C159.865 67.4315 158.818 66.0362 158.051 64.4317C157.423 63.1061 157.075 61.7806 156.935 60.3853V59.3389C157.423 59.3389 157.981 59.3389 157.981 59.3389H195.715V54.6646C195.715 49.3625 194.669 44.5488 192.576 40.5722C190.484 36.7352 187.415 33.4562 183.649 31.154ZM156.796 50.2695L156.935 48.7346H157.005C157.493 45.9441 158.958 43.3628 161.05 41.4791C163.282 39.5257 166.351 38.549 170.118 38.549C173.744 38.549 176.744 39.5257 178.976 41.4791C180.091 42.4558 181.068 43.6418 181.696 44.9674C182.393 46.2929 182.742 47.7579 182.881 49.223V50.2695H156.796Z" fill="white"/>
<path d="M520.67 57.525C518.647 55.2925 516.066 53.6182 513.137 52.6415C509.65 51.3857 505.953 50.409 502.326 49.7811L499.327 49.223C497.235 48.9439 495.212 48.2463 493.398 47.2696C492.631 46.851 492.004 46.2231 491.585 45.4557C491.167 44.6883 490.957 43.8511 491.027 42.9442C491.027 42.1768 491.236 41.3396 491.585 40.5722C492.004 39.8746 492.562 39.2467 493.329 38.8281C494.724 37.9212 496.816 37.4328 499.536 37.4328C501.908 37.363 504.279 37.9909 506.302 39.2467C508.045 40.3629 509.301 42.2466 509.929 44.8278L521.437 41.2698C520.182 37.2933 517.601 33.8748 514.044 31.6423C510.068 29.0611 505.186 27.7355 499.397 27.7355C493.259 27.7355 488.237 29.1308 484.471 31.8516C480.774 34.5725 478.891 38.549 478.891 43.6418C478.891 46.9905 479.798 49.7811 481.541 51.8741C483.494 54.1065 485.935 55.8506 488.725 56.9669C492.004 58.2924 495.421 59.2691 498.839 59.897L501.838 60.4551C505.116 61.0132 507.418 61.7806 508.882 62.7573C509.65 63.1759 510.208 63.8038 510.696 64.5712C511.114 65.3386 511.324 66.1758 511.324 67.0827C511.324 67.9897 511.114 68.8966 510.626 69.664C510.208 70.4314 509.58 71.1291 508.813 71.6174C507.209 72.8034 504.698 73.3615 501.35 73.3615C499.397 73.3615 497.514 73.0127 495.63 72.4546C493.817 71.8267 492.213 70.7105 490.957 69.2454C489.702 67.5711 488.865 65.6874 488.446 63.6643L477.008 66.5944C477.984 71.7569 480.565 75.873 484.75 78.6636C489.074 81.5937 494.724 83.0588 501.559 83.0588C508.185 83.0588 513.556 81.5937 517.461 78.5939C521.367 75.6637 523.32 71.4779 523.32 66.0362C523.32 62.4783 522.414 59.6179 520.67 57.525Z" fill="white"/>
<path d="M247.259 35.6887H244.538L244.399 35.4794C243.004 33.3865 241.191 31.6423 239.098 30.2471C236.657 28.5727 233.1 27.7355 228.357 27.7355C228.287 27.7355 228.217 27.7355 228.148 27.7355C224.033 27.7355 220.057 28.782 216.5 30.8052C212.873 32.8981 209.874 36.0375 207.851 39.735C205.689 43.6418 204.573 48.3858 204.573 53.8275V55.5716C204.573 61.0132 205.689 65.7572 207.851 69.664C209.874 73.4313 212.873 76.5009 216.5 78.5939C219.499 80.2682 222.777 81.2449 226.195 81.5937C229.612 81.9426 233.03 81.5937 236.308 80.5473C238.122 79.9194 239.796 79.0124 241.26 77.6869C242.376 76.7102 243.353 75.5242 244.19 74.2685L244.329 74.0592H259.534V29.2704H247.259V35.6887ZM247.259 55.2925C247.259 60.2458 245.794 64.0828 242.934 66.8734C239.935 69.5245 236.169 70.9895 232.193 70.9895C228.217 70.9895 224.381 69.5245 221.452 66.8734C218.523 64.1526 217.058 60.2458 217.058 55.2925V54.246C217.058 49.223 218.523 45.3162 221.382 42.5954C224.312 39.8746 228.148 38.4095 232.193 38.549C236.517 38.549 240.144 39.9443 243.004 42.5954C245.864 45.3162 247.328 49.223 247.328 54.246V55.2925H247.259Z" fill="white"/>
<path d="M247.049 88.5004C247.049 90.9422 245.794 92.2677 243.492 92.2677H213.082V103.081H248.235C251.653 103.081 254.443 102.035 256.465 99.9418C258.488 97.8488 259.534 95.0583 259.534 91.5003V87.1749H247.049V88.5004Z" fill="white"/>
</g>
<defs>
<linearGradient id="paint0_linear_59_1457" x1="16.6329" y1="72.6395" x2="95.1499" y2="33.8133" gradientUnits="userSpaceOnUse">
<stop stop-color="#590BD8"/>
<stop offset="1" stop-color="#FF0088"/>
</linearGradient>
<linearGradient id="paint1_linear_59_1457" x1="53.8755" y1="15.7768" x2="53.8755" y2="86.6984" gradientUnits="userSpaceOnUse">
<stop stop-color="white" stop-opacity="0.7"/>
<stop offset="1" stop-color="white"/>
</linearGradient>
<clipPath id="clip0_59_1457">
<rect width="406.35" height="75.2759" fill="white" transform="translate(144.102 27.7355)"/>
</clipPath>
</defs>
</svg>
