<svg width="81" height="81" viewBox="0 0 81 81" fill="none" xmlns="http://www.w3.org/2000/svg">
<path d="M50.893 10.6377L80.5323 40.3074L50.893 69.9771C49.4974 71.374 47.8407 72.4822 46.0174 73.2382C44.194 73.9942 42.2398 74.3834 40.2662 74.3834C38.2926 74.3834 36.3383 73.9942 34.515 73.2382C32.6916 72.4822 31.0349 71.374 29.6394 69.9771L1.09606e-05 40.3074L29.6394 10.6377C32.4578 7.81638 36.2804 6.2314 40.2662 6.2314C44.252 6.2314 48.0746 7.81638 50.893 10.6377Z" fill="url(#paint0_linear_4657_5666)"/>
<path fill-rule="evenodd" clip-rule="evenodd" d="M45.7357 18.0371C44.2833 16.5881 42.3163 15.7744 40.2657 15.7744C38.2151 15.7744 36.2482 16.5881 34.7958 18.0371L12.5491 40.3022L18.5649 46.3065L46.2794 18.5637L45.7357 18.0371ZM51.1288 23.4346L34.2728 40.3079L40.2645 46.3056L57.1204 29.4324L51.1288 23.4346ZM40.2679 56.0541L61.993 34.3112L67.9823 40.3023L45.7489 62.5761C44.2976 64.0273 42.3302 64.8425 40.2789 64.8425C38.2276 64.8425 36.2602 64.0273 34.809 62.5761L23.427 51.1826L29.4031 45.1694L40.2679 56.0541Z" fill="url(#paint1_linear_4657_5666)"/>
<defs>
<linearGradient id="paint0_linear_4657_5666" x1="12.1599" y1="54.2327" x2="71.4139" y2="24.932" gradientUnits="userSpaceOnUse">
<stop stop-color="#590BD8"/>
<stop offset="1" stop-color="#FF0088"/>
</linearGradient>
<linearGradient id="paint1_linear_4657_5666" x1="40.2657" y1="11.3206" x2="40.2657" y2="64.8425" gradientUnits="userSpaceOnUse">
<stop stop-color="white" stop-opacity="0.7"/>
<stop offset="1" stop-color="white"/>
</linearGradient>
</defs>
</svg>
