<svg width="32" height="35" viewBox="0 0 32 35" fill="none" xmlns="http://www.w3.org/2000/svg">
<rect y="0.997559" width="32" height="34" rx="16" fill="#B7B7B7"/>
<path d="M26.1599 17.3579V9.13086C26.1599 9.00396 26.0012 8.95109 25.9167 9.04626L16.9282 20.2765C16.8542 20.3611 16.9176 20.4986 17.0339 20.4986H23.5268C23.7065 20.4986 23.8652 20.414 23.9709 20.2765L26.0224 17.7175C26.107 17.6223 26.1599 17.4954 26.1599 17.3579ZM5.13747 17.728L11.8841 26.1666C11.9898 26.3041 12.159 26.3781 12.3388 26.3781H18.8316C18.948 26.3781 19.0114 26.2512 18.9374 26.1666L5.24322 9.05683C5.15862 8.96166 5 9.01454 5 9.14143V17.3685C5.01057 17.4954 5.05287 17.6223 5.13747 17.728Z" fill="white"/>
</svg>
